<?xml version="1.0"?>
<svg xmlns="http://www.w3.org/2000/svg" height="512px" viewBox="0 0 512 512" width="512px" class=""><g><path d="m183.871094 256.457031h16.027344v15.117188h-16.027344zm0 0" data-original="#000000" class="active-path" data-old_color="#000000" fill="#202095"/><path d="m215.929688 320.570312h16.027343v15.117188h-16.027343zm0 0" data-original="#000000" class="active-path" data-old_color="#000000" fill="#202095"/><path d="m247.984375 320.570312h16.027344v15.117188h-16.027344zm0 0" data-original="#000000" class="active-path" data-old_color="#000000" fill="#202095"/><path d="m247.984375 32.058594h16.027344v15.117187h-16.027344zm0 0" data-original="#000000" class="active-path" data-old_color="#000000" fill="#202095"/><path d="m247.984375 464.824219h16.027344v15.117187h-16.027344zm0 0" data-original="#000000" class="active-path" data-old_color="#000000" fill="#202095"/><path d="m512 303.628906v-95.257812h-61.863281c-4.773438-19.742188-12.554688-38.515625-23.191407-55.957032l43.789063-43.710937-67.4375-67.441406-43.710937 43.792969c-17.441407-10.636719-36.214844-18.421876-55.957032-23.195313v-61.859375h-95.257812v61.859375c-19.742188 4.773437-38.515625 12.558594-55.957032 23.195313l-43.710937-43.792969-67.4375 67.441406 43.789063 43.710937c-10.636719 17.441407-18.417969 36.214844-23.195313 55.957032h-61.859375v95.257812h61.863281c4.773438 19.742188 12.554688 38.515625 23.191407 55.957032l-43.789063 43.710937 67.4375 67.4375 43.710937-43.789063c17.441407 10.636719 36.214844 18.417969 55.957032 23.191407v61.859375h95.257812v-61.859375c19.742188-4.773438 38.515625-12.554688 55.957032-23.191407l43.710937 43.789063 67.4375-67.4375-17.054687-17.023437-10.679688 10.699218 6.347656 6.335938-46.042968 46.039062-41.628907-41.707031-5.144531 3.355469c-19.046875 12.4375-39.910156 21.082031-62.007812 25.699218l-6.011719 1.257813v58.929687h-65.027344v-58.929687l-6.011719-1.257813c-22.097656-4.617187-42.960937-13.261718-62.007812-25.699218l-5.144532-3.355469-41.628906 41.707031-46.042968-46.039062 41.707031-41.632813-3.355469-5.140625c-12.4375-19.046875-21.082031-39.910156-25.699219-62.007812l-1.257812-6.015625h-58.925781v-65.023438h58.929687l1.257813-6.011719c4.617187-22.101562 13.261718-42.964843 25.699218-62.007812l3.355469-5.144531-41.707031-41.628907 46.039062-46.042968 41.632813 41.707031 5.144531-3.355469c19.042969-12.433594 39.910156-21.082031 62.007812-25.699218l6.011719-1.253907v-58.933593h65.023438v58.929687l6.015625 1.257813c22.097656 4.617187 42.960937 13.261718 62.007812 25.695312l5.140625 3.359375 41.632813-41.710937 46.042968 46.042968-41.707031 41.632813 3.355469 5.140625c12.433594 19.046875 21.082031 39.910156 25.699219 62.007812l1.253906 6.011719h58.933594v65.027344h-58.933594l-1.253906 6.011719c-4.617188 22.097656-13.265625 42.960937-25.699219 62.007812l-3.355469 5.144531 19.332031 19.296875 10.679688-10.699218-10.707031-10.6875c10.636719-17.441407 18.417969-36.21875 23.191406-55.957032zm0 0" data-original="#000000" class="active-path" data-old_color="#000000" fill="#202095"/><path d="m96.171875 256c0 88.128906 71.699219 159.828125 159.828125 159.828125 85.121094 0 155.253906-66.511719 159.660156-151.421875l.003906-.164062c.074219-2.40625.164063-5.402344.164063-8.242188 0-88.128906-71.699219-159.828125-159.828125-159.828125-26.414062 0-52.597656 6.585937-75.714844 19.050781l7.171875 13.304688c18.714844-10.089844 39.652344-15.910156 60.984375-17.027344v160.070312h71.671875v-15.117187h-56.554687v-16.941406h96.625v-15.113281h-96.625v-16.941407h80.597656v-15.117187h-80.597656v-16.941406h56.554687v-15.117188h-56.554687v-16.941406h24.5v-15.113282h-24.5v-16.746093c76.292968 3.945312 137.152344 67.257812 137.152344 144.515625 0 .152344-.003907.304687-.003907.457031h-56.550781v15.117187h55.769531c-7.792969 73.03125-69.53125 129.140626-143.925781 129.140626-79.796875 0-144.710938-64.917969-144.710938-144.714844 0-44.945313 20.375-86.585938 55.90625-114.25l-9.285156-11.929688c-39.234375 30.550782-61.738281 76.542969-61.738281 126.183594zm0 0" data-original="#000000" class="active-path" data-old_color="#000000" fill="#202095"/><path d="m215.929688 256.457031h16.027343v15.117188h-16.027343zm0 0" data-original="#000000" class="active-path" data-old_color="#000000" fill="#202095"/><path d="m151.8125 256.457031h16.03125v15.117188h-16.03125zm0 0" data-original="#000000" class="active-path" data-old_color="#000000" fill="#202095"/><path d="m215.929688 288.511719h16.027343v15.117187h-16.027343zm0 0" data-original="#000000" class="active-path" data-old_color="#000000" fill="#202095"/><path d="m31.601562 248.441406h16.027344v15.117188h-16.027344zm0 0" data-original="#000000" class="active-path" data-old_color="#000000" fill="#202095"/><path d="m464.371094 248.441406h16.027344v15.117188h-16.027344zm0 0" data-original="#000000" class="active-path" data-old_color="#000000" fill="#202095"/></g> </svg>
