<?xml version="1.0"?>
<svg xmlns="http://www.w3.org/2000/svg" id="Line" height="512px" viewBox="0 0 64 64" width="512px" class="hovered-paths"><g><path d="m51.758 19.03c-2.041.51-3.027-.171-4.823-1.4-2.771-1.9-6.658-4.215-9.628-2.694a4.559 4.559 0 0 0 -1.992 2.082c-2.644.112-4.318.9-4.979 2.333-1.031 2.242.922 5.059 1.664 6.007v4.642a9 9 0 0 0 18 0v-6-.01a8.671 8.671 0 0 0 2.939-3.639 1 1 0 0 0 -1.181-1.321zm-10.758 17.97a7.008 7.008 0 0 1 -7-7v-4.743a3.883 3.883 0 0 1 1.947-1.767c1.192-.314 6.453 3.646 12.053 1.546v4.964a7.008 7.008 0 0 1 -7 7z" fill="#c4a2fc" data-original="#C4A2FC" class="" style="fill:#BE0A0A" data-old_color="#c4a2fc"/><path d="m58.86 46.61-8.33-2.5-2.82-2.82a1 1 0 0 0 -1.26-.12l-5.45 3.63-5.45-3.63a1 1 0 0 0 -1.26.12l-2.82 2.82-8.33 2.5a2.991 2.991 0 0 0 -2.14 2.88v10.51a3.009 3.009 0 0 0 3 3h34a3.009 3.009 0 0 0 3-3v-10.51a2.991 2.991 0 0 0 -2.14-2.88zm-21.06 2.78-4.39-4.39 1.72-1.71 4.52 3.01zm4.55-3.09 4.52-3.01 1.72 1.71-4.39 4.39zm11.65 9.7h-5a1 1 0 0 1 0-2h5a1 1 0 0 1 0 2z" fill="#c4a2fc" data-original="#C4A2FC" class="" style="fill:#BE0A0A" data-old_color="#c4a2fc"/><g fill="#151a6a"><path d="m50.547 15.151a4.951 4.951 0 0 0 -7.026 0l-6.736 6.778v-17.929a2.994 2.994 0 0 0 -2.985-3h-27.819a2.994 2.994 0 0 0 -2.981 3v44a2.994 2.994 0 0 0 2.981 3h27.819a2.994 2.994 0 0 0 2.981-3v-11.929l13.766-13.849a5.028 5.028 0 0 0 0-7.071zm-20.376 24.749-4.216-4.242 16.863-16.972 4.216 4.243zm-5.187-2.391 3.347 3.368-5.021 1.684zm9.816 10.491a1 1 0 0 1 -.994 1h-27.825a1 1 0 0 1 -.994-1v-44a1 1 0 0 1 .994-1h27.819a1 1 0 0 1 1 1v19.929l-10.953 11.021a2.865 2.865 0 0 0 -.24.39l-2.537 7.66h-9.127a1 1 0 0 0 0 2h9.318a.918.918 0 0 0 .792.091l8.432-2.829a2.923 2.923 0 0 0 .388-.241l3.925-3.95zm14.342-27.192-.7.707-4.216-4.243.7-.707a2.973 2.973 0 0 1 4.216 0 3.018 3.018 0 0 1 0 4.243z" data-original="#151A6A" class="active-path" style="fill:#A82C2C" data-old_color="#151A6A"/><path d="m19.893 16a5 5 0 1 0 -4.969-5 4.99 4.99 0 0 0 4.969 5zm0-8a3 3 0 1 1 -2.981 3 2.995 2.995 0 0 1 2.981-3z" data-original="#151A6A" class="active-path" style="fill:#A82C2C" data-old_color="#151A6A"/><path d="m14.924 26h9.937a4 4 0 0 0 0-8h-9.937a4 4 0 0 0 0 8zm0-6h9.937a2 2 0 0 1 0 4h-9.937a2 2 0 0 1 0-4z" data-original="#151A6A" class="active-path" style="fill:#A82C2C" data-old_color="#151A6A"/></g></g> </svg>
