<?xml version="1.0"?>
<svg xmlns="http://www.w3.org/2000/svg" id="Layer_1" height="512px" viewBox="0 0 512 512" width="512px" data-name="Layer 1" class="hovered-paths"><g><path d="m256 10a246 246 0 0 0 -173.948 419.948 246 246 0 1 0 347.9-347.9 244.39 244.39 0 0 0 -173.952-72.048zm-5.967 479.925a234 234 0 0 1 -159.496-399.388 232.4 232.4 0 0 1 162.044-68.495zm13.924-353.256c68.754 10.731 109.643 55.931 109.643 121.665a111.808 111.808 0 0 1 -31.352 78.466c-19.849 20.849-47.3 34.89-79.6 40.816zm-1.379 253.16c73.714-12.656 123.022-65.176 123.022-131.495 0-35.368-11.215-66.429-32.433-89.822-21.162-23.333-51.939-38.5-89.14-43.971l.31-57c52.085 9.158 95.12 29.8 124.763 59.944 31.949 32.486 48.149 74.554 48.149 125.038 0 50.44-18.106 97.2-50.982 131.671-32.058 33.612-75.875 52.741-123.95 54.283zm158.885 31.634a232.369 232.369 0 0 1 -159.43 68.459l.215-39.434c51.418-1.535 98.343-21.989 132.7-58.01 35.015-36.712 54.3-86.416 54.3-139.954 0-52.986-17.841-99.133-51.593-133.452-31.797-32.327-77.79-54.295-133.255-63.702l.18-33.2a233.99 233.99 0 0 1 156.883 399.293z" data-original="#000000" class="active-path" data-old_color="#000000" fill="#202095"/></g> </svg>
