<?xml version="1.0"?>
<svg xmlns="http://www.w3.org/2000/svg" id="Layer_5" enable-background="new 0 0 64 64" height="512px" viewBox="0 0 64 64" width="512px" class=""><g><g><path d="m44.196 7h-6.392l3.196 5.113z" data-original="#000000" class="active-path" data-old_color="#000000" fill="#FFFFFF"/><path d="m54.196 7h-6.392l3.196 5.113z" data-original="#000000" class="active-path" data-old_color="#000000" fill="#FFFFFF"/><path d="m39.196 13-3.271-5.233-3.925 5.233z" data-original="#000000" class="active-path" data-old_color="#000000" fill="#FFFFFF"/><path d="m32.135 15 12.157 14.588-4.052-14.588z" data-original="#000000" class="active-path" data-old_color="#000000" fill="#FFFFFF"/><path d="m51.76 15-4.052 14.588 12.157-14.588z" data-original="#000000" class="active-path" data-old_color="#000000" fill="#FFFFFF"/><path d="m60 13-3.925-5.233-3.271 5.233z" data-original="#000000" class="active-path" data-old_color="#000000" fill="#FFFFFF"/><path d="m49.684 15h-7.368l3.684 13.263z" data-original="#000000" class="active-path" data-old_color="#000000" fill="#FFFFFF"/><path d="m9 15h9.877c2.299 0 4.294 1.558 4.851 3.788l1.819 7.274c.969-.815 2.282-1.138 3.507-1.003-.022-.352-.054-.701-.054-1.059 0-2.611.612-5.195 1.762-7.524l-2.037-2.444 4.316-5.754c-3.392-2.139-7.283-3.278-11.329-3.278h-8.222l-.292-.286c-1.128-1.106-2.619-1.714-4.198-1.714-3.309 0-6 2.691-6 6s2.691 6 6 6z" data-original="#000000" class="active-path" data-old_color="#000000" fill="#FFFFFF"/><path d="m49.196 13-3.196-5.113-3.196 5.113z" data-original="#000000" class="active-path" data-old_color="#000000" fill="#FFFFFF"/><path d="m49 47h-2-2-2c-.552 0-1 .448-1 1v8 1c0 2.206 1.794 4 4 4s4-1.794 4-4v-9c0-.552-.448-1-1-1z" data-original="#000000" class="active-path" data-old_color="#000000" fill="#FFFFFF"/><path d="m47 45c.552 0 1-.448 1-1v-3.128c-.657.077-1.322.128-2 .128s-1.343-.051-2-.128v3.128c0 .552.448 1 1 1z" data-original="#000000" class="active-path" data-old_color="#000000" fill="#FFFFFF"/><path d="m59.818 18.18-2.246 2.695c.274.996.428 2.041.428 3.125 0 6.627-5.373 12-12 12s-12-5.373-12-12c0-1.084.154-2.129.427-3.125l-2.246-2.695c-.771 1.834-1.181 3.818-1.181 5.82 0 8.271 6.729 15 15 15s15-6.729 15-15c0-2.002-.41-3.986-1.182-5.82z" data-original="#000000" class="active-path" data-old_color="#000000" fill="#FFFFFF"/><path d="m35.195 43.489.135-.12c1.327-1.181 2.502-2.516 3.52-3.967-2.753-1.283-5.11-3.272-6.825-5.746-.445.906-1.019 1.747-1.738 2.471z" data-original="#000000" class="active-path" data-old_color="#000000" fill="#FFFFFF"/><path d="m35 51c-2.757 0-5 2.243-5 5v1h10v-1c0-2.757-2.243-5-5-5z" data-original="#000000" class="active-path" data-old_color="#000000" fill="#FFFFFF"/><path d="m34 49.08v-3.777l-6.287-9.43 1.134-1.134c.915-.915 1.555-2.055 1.89-3.302-.658-1.346-1.15-2.784-1.434-4.299-.248-.082-.502-.138-.771-.138-.74 0-1.383.264-1.862.744l-2.212 2.212-2.67-10.684c-.335-1.337-1.532-2.272-2.911-2.272h-9.906c-1.339 0-2.525.896-2.886 2.18-.728 2.586-1.915 7.308-2.068 11.044l3.983.995v7.781h2.528c2.377 0 4.514-1.321 5.577-3.447l1.789.895c-1.404 2.808-4.226 4.552-7.366 4.552h-2.427c.465 2.279 2.484 4 4.899 4h10v2h-2v3.802l-3.926.873c-2.656.59-4.6 2.711-4.999 5.325h15.925v-1c0-3.519 2.614-6.432 6-6.92z" data-original="#000000" class="active-path" data-old_color="#000000" fill="#FFFFFF"/></g></g> </svg>
