<?xml version="1.0"?>
<svg xmlns="http://www.w3.org/2000/svg" xmlns:xlink="http://www.w3.org/1999/xlink" version="1.1" id="Capa_1" x="0px" y="0px" viewBox="0 0 512 512" style="enable-background:new 0 0 512 512;" xml:space="preserve" width="512px" height="512px"><g><g>
	<g>
		<path d="M500.505,317c7.141-7.968,11.495-18.483,11.495-30c0-24.813-20.187-45-45-45c-9.644,0-84.985,0-95.175,0    C385.222,206.072,392,168.402,392,129.721V107c0-24.813-20.187-45-45-45s-45,20.187-45,45c0,34.686-13.507,67.294-38.033,91.82    L220.787,242H212v-15c0-8.284-6.716-15-15-15h-45v-15c0-8.284-6.716-15-15-15H15c-8.284,0-15,6.716-15,15v300    c0,8.284,6.716,15,15,15h122c8.284,0,15-6.716,15-15v-15h45c6.434,0,11.907-4.059,14.037-9.75l8.955,8.955    C239.85,501.063,266.253,512,294.338,512c2.966,0,139.624,0,142.662,0c24.813,0,45-20.187,45-45    c0-5.856-1.136-11.449-3.181-16.586C497.916,445.209,512,427.723,512,407c0-11.517-4.354-22.032-11.495-30    c7.141-7.968,11.495-18.483,11.495-30C512,335.483,507.646,324.968,500.505,317z M122,482H30V212h92    C122,217.935,122,479.004,122,482z M182,257v180v15h-30V242h30V257z M373.495,377C366.354,384.968,362,395.483,362,407    c0,11.517,4.354,22.032,11.495,30C366.354,444.968,362,455.483,362,467c0,5.258,0.915,10.305,2.58,15h-70.242    c-20.071,0-38.941-7.816-53.133-22.008L212,430.787V272h15c3.979,0,7.793-1.581,10.606-4.394l47.574-47.573    C315.372,189.841,332,149.699,332,107c0-8.271,6.729-15,15-15s15,6.729,15,15v22.721c0,42.055-8.833,82.787-26.252,121.066    C331.231,260.711,338.504,272,349.4,272h15.18c-1.665,4.695-2.58,9.742-2.58,15c0,11.517,4.354,22.032,11.495,30    C366.354,324.968,362,335.483,362,347C362,358.517,366.354,369.032,373.495,377z M437,482h-30c-8.271,0-15-6.729-15-15    s6.729-15,15-15h30c8.271,0,15,6.729,15,15S445.271,482,437,482z M467,422c-6.359,0-53.641,0-60,0c-8.271,0-15-6.729-15-15    s6.729-15,15-15h60c8.271,0,15,6.729,15,15S475.271,422,467,422z M467,362h-60c-8.271,0-15-6.729-15-15s6.729-15,15-15h60    c8.271,0,15,6.729,15,15S475.271,362,467,362z M467,302h-60c-8.271,0-15-6.729-15-15s6.729-15,15-15h60c8.271,0,15,6.729,15,15    S475.271,302,467,302z" data-original="#000000" class="active-path" data-old_color="#000000" fill="#FFFFFF"/>
	</g>
</g><g>
	<g>
		<circle cx="77" cy="437" r="15" data-original="#000000" class="active-path" data-old_color="#000000" fill="#FFFFFF"/>
	</g>
</g><g>
	<g>
		<circle cx="407" cy="15" r="15" data-original="#000000" class="active-path" data-old_color="#000000" fill="#FFFFFF"/>
	</g>
</g><g>
	<g>
		<path d="M263.815,62.189l-35.483-17.742l-17.77-36.07c-5.487-11.138-21.42-11.144-26.912,0l-17.769,36.07L130.398,62.19    c-11.047,5.524-11.022,21.322,0,26.832l35.528,17.765l17.764,35.527c5.524,11.047,21.322,11.022,26.833,0l17.765-35.527    l35.527-17.765C274.862,83.499,274.836,67.701,263.815,62.189z M210.398,82.191c-2.903,1.451-5.256,3.805-6.708,6.708    l-6.585,13.168l-6.584-13.168c-1.452-2.903-3.805-5.256-6.708-6.708l-13.168-6.585l13.169-6.584c2.93-1.465,5.3-3.849,6.747-6.788    l6.545-13.286l6.545,13.286c1.447,2.938,3.817,5.322,6.747,6.788l13.168,6.584L210.398,82.191z" data-original="#000000" class="active-path" data-old_color="#000000" fill="#FFFFFF"/>
	</g>
</g><g>
	<g>
		<path d="M497,122h-15v-15c0-8.284-6.716-15-15-15s-15,6.716-15,15v15h-15c-8.284,0-15,6.716-15,15s6.716,15,15,15h15v15    c0,8.284,6.716,15,15,15s15-6.716,15-15v-15h15c8.284,0,15-6.716,15-15S505.284,122,497,122z" data-original="#000000" class="active-path" data-old_color="#000000" fill="#FFFFFF"/>
	</g>
</g></g> </svg>
