<?xml version="1.0"?>
<svg xmlns="http://www.w3.org/2000/svg" id="Capa_1" enable-background="new 0 0 512 512" height="512px" viewBox="0 0 512 512" width="512px"><g><g id="XMLID_1599_"><g id="XMLID_801_"><path id="XMLID_822_" d="m500.68 223.203c-8.663-10.92-21.06-17.812-34.908-19.408-13.844-1.596-27.486 2.298-38.406 10.961-.769.61-1.56 1.19-2.344 1.779v-31.387c0-39.264-13.766-77.518-38.762-107.714-22.981-27.764-54.377-47.538-89.06-56.252-.908-4.325-2.89-8.404-5.833-11.848-5.075-5.932-12.461-9.334-20.267-9.334h-30.229c-7.806 0-15.193 3.402-20.266 9.335-2.944 3.442-4.925 7.522-5.833 11.848-34.683 8.714-66.079 28.488-89.061 56.252-24.996 30.196-38.761 68.45-38.761 107.714v31.387c-.784-.59-1.574-1.169-2.343-1.779-22.543-17.886-55.43-14.095-73.316 8.447-17.884 22.541-14.095 55.43 8.447 73.315 13.936 11.056 29.148 20.313 45.212 27.648v81.761c0 38.963 15.173 75.594 42.724 103.145 1.876 1.875 4.419 2.929 7.071 2.929s5.196-1.054 7.071-2.929l31.112-31.113c3.905-3.905 3.905-10.237 0-14.143-15.463-15.463-23.979-36.021-23.979-57.889v-63.52c9.083 1.153 18.253 1.741 27.454 1.741h54.644c5.523 0 10-4.478 10-10s-4.477-10-10-10h-54.644c-44.923 0-89.044-15.377-124.237-43.299-13.902-11.03-16.239-31.314-5.208-45.217 11.029-13.903 31.313-16.24 45.217-5.209 23.858 18.93 53.771 29.354 84.228 29.354h199.162c30.457 0 60.37-10.425 84.23-29.354 6.733-5.344 15.143-7.742 23.687-6.761 8.541.984 16.188 5.235 21.53 11.97 5.343 6.735 7.743 15.148 6.76 23.688-.984 8.541-5.235 16.186-11.97 21.529-35.193 27.922-79.315 43.299-124.237 43.299h-54.518c-5.522 0-10 4.478-10 10s4.478 10 10 10h54.518c9.202 0 18.373-.588 27.456-1.741v63.52c0 21.867-8.516 42.426-23.978 57.889-3.905 3.905-3.905 10.237 0 14.143l31.112 31.113c1.875 1.875 4.419 2.929 7.071 2.929s5.195-1.054 7.071-2.929c27.551-27.551 42.724-64.182 42.724-103.145v-81.761c16.064-7.335 31.276-16.592 45.211-27.648 10.92-8.663 17.812-21.061 19.408-34.908 1.597-13.849-2.297-27.489-10.96-38.408zm-368.624 247.343-17.036 17.037c-19.46-22.757-30.07-51.391-30.07-81.656v-73.775c7.862 2.703 15.877 4.96 24 6.763v67.012c0 23.847 8.14 46.446 23.106 64.619zm65.93-313.951v-23.768l58-30.234 58 30.234v23.768c0 37.217-23.177 69.899-58 82.307-34.824-12.408-58-45.091-58-82.307zm96.616 83.183c24.458-19.929 39.384-50.09 39.384-83.184v-29.833c0-3.727-2.072-7.145-5.378-8.867l-68-35.447c-2.896-1.51-6.348-1.51-9.245 0l-68 35.447c-3.305 1.723-5.377 5.141-5.377 8.867v29.833c0 33.093 14.927 63.254 39.384 83.184h-60.966c-17.141 0-34.069-3.896-49.454-11.172v-43.458c0-67.194 45.36-126.013 109.257-143.661l2.523 16.057c.775 4.931 5.028 8.449 9.867 8.449.516 0 1.039-.04 1.564-.122 5.456-.857 9.184-5.975 8.327-11.431l-4.201-26.74c-.415-2.64.773-4.496 1.519-5.367.745-.871 2.394-2.333 5.066-2.333h30.228c2.672 0 4.321 1.462 5.066 2.334.745.871 1.934 2.728 1.518 5.367l-4.201 26.74c-.857 5.456 2.871 10.573 8.327 11.431.525.083 1.048.122 1.564.122 4.838 0 9.092-3.519 9.866-8.449l2.523-16.057c63.897 17.647 109.257 76.466 109.257 143.661v43.457c-15.386 7.276-32.315 11.173-49.456 11.173h-60.962zm132.42 166.149c0 30.266-10.609 58.899-30.069 81.656l-17.036-17.037c14.965-18.174 23.105-40.771 23.105-64.619v-67.012c8.123-1.804 16.138-4.061 24-6.764z" data-original="#000000" class="active-path" data-old_color="#000000" fill="#FFFFFF"/><path id="XMLID_828_" d="m293.986 151.02c0-3.727-2.072-7.145-5.377-8.867l-28-14.597c-2.898-1.51-6.349-1.51-9.246 0l-28 14.597c-3.305 1.723-5.377 5.141-5.377 8.867v5.575c0 23.696 12.606 45.892 32.899 57.925 1.572.933 3.336 1.398 5.101 1.398 1.764 0 3.528-.466 5.101-1.398 20.293-12.033 32.899-34.229 32.899-57.925zm-38 42.814c-11.246-8.793-17.854-22.117-17.998-36.752l17.998-9.382 17.998 9.382c-.145 14.635-6.752 27.959-17.998 36.752z" data-original="#000000" class="active-path" data-old_color="#000000" fill="#FFFFFF"/><path id="XMLID_829_" d="m256.046 324.649c-2.63 0-5.211 1.07-7.07 2.931-1.86 1.87-2.93 4.439-2.93 7.069 0 2.641 1.07 5.21 2.93 7.07 1.86 1.87 4.44 2.94 7.07 2.94 2.64 0 5.209-1.07 7.07-2.94 1.86-1.86 2.93-4.43 2.93-7.07 0-2.63-1.069-5.199-2.93-7.069-1.861-1.86-4.43-2.931-7.07-2.931z" data-original="#000000" class="active-path" data-old_color="#000000" fill="#FFFFFF"/></g></g></g> </svg>
