<?xml version="1.0"?>
<svg xmlns="http://www.w3.org/2000/svg" id="Capa_1" enable-background="new 0 0 512 512" height="512px" viewBox="0 0 512 512" width="512px"><g><g><path d="m331.001 181h-150c-8.28 0-15 6.722-15 15v120c0 8.28 6.72 15 15 15h150c8.278 0 15-6.72 15-15v-120c0-8.278-6.722-15-15-15z" data-original="#000000" class="active-path" data-old_color="#000000" fill="#FFFFFF"/><path d="m451.539 442.78-20.579-278.098c-6.15-91.8-82.98-164.682-174.959-164.682-91.981 0-168.811 72.882-174.932 164.561l-20.608 278.219 6.149 4.951c3.24 2.581 80.37 64.269 189.391 64.269 109.019 0 186.149-61.688 189.39-64.268zm-240.538-351.78h90v30h-90zm165 225c0 24.811-20.191 45-45 45h-150c-24.811 0-45-20.189-45-45v-120c0-24.809 20.189-45 45-45h150c24.809 0 45 20.191 45 45z" data-original="#000000" class="active-path" data-old_color="#000000" fill="#FFFFFF"/></g></g> </svg>
