<?xml version="1.0"?>
<svg xmlns="http://www.w3.org/2000/svg" height="512px" viewBox="0 0 60 60" width="512px"><g><g id="Page-1" fill="none" fill-rule="evenodd"><g id="006---Gems" fill="rgb(0,0,0)" fill-rule="nonzero"><path id="Shape" d="m28.45 49-18.67-24h12.45z" data-original="#000000" class="active-path" fill="#000000"/><path id="Shape" d="m35.11 35.29c.1380712-.5357162-.1842838-1.0819288-.72-1.22s-1.0819288.1842838-1.22.72l-3.17 12.23-5.7-22.02h11.4l-1.23 4.75c-.0893164.3465476.0130328.7144206.2684936.9650447.2554609.250624.6252228.3459235.9700001.25.3447772-.0959236.6121899-.3684971.7015063-.7150447l1.36-5.25h12.45l-18.67 24z" data-original="#000000" class="active-path" fill="#000000"/><path id="Shape" d="m4 31h-3c-.55228475 0-1-.4477153-1-1s.44771525-1 1-1h3c.55228475 0 1 .4477153 1 1s-.44771525 1-1 1z" data-original="#000000" class="active-path" fill="#000000"/><path id="Shape" d="m59 31h-3c-.5522847 0-1-.4477153-1-1s.4477153-1 1-1h3c.5522847 0 1 .4477153 1 1s-.4477153 1-1 1z" data-original="#000000" class="active-path" fill="#000000"/><path id="Shape" d="m30 60c-.5522847 0-1-.4477153-1-1v-3c0-.5522847.4477153-1 1-1s1 .4477153 1 1v3c0 .5522847-.4477153 1-1 1z" data-original="#000000" class="active-path" fill="#000000"/><path id="Shape" d="m30 5c-.5522847 0-1-.44771525-1-1v-3c0-.55228475.4477153-1 1-1s1 .44771525 1 1v3c0 .55228475-.4477153 1-1 1z" data-original="#000000" class="active-path" fill="#000000"/><path id="Shape" d="m9.494 51.506c-.40395711-.0004892-.76794763-.2439725-.92260109-.6171533s-.06959314-.8027596.21560109-1.0888467l2.121-2.121c.3923789-.3789722 1.0160848-.3735524 1.4018186.0121814s.3911536 1.0094397.0121814 1.4018186l-2.122 2.12c-.1872476.1873046-.44115178.2926784-.706.293z" data-original="#000000" class="active-path" fill="#000000"/><path id="Shape" d="m48.385 12.615c-.4043959-.0000863-.7689341-.2437275-.923678-.6173454-.1547439-.373618-.0692299-.8036603.216678-1.0896546l2.122-2.121c.2486399-.27014567.6253227-.38231463.9812426-.2921953.3559199.09011932.6338334.36803283.7239527.72395272s-.0220496.73260273-.2921953.98124258l-2.121 2.121c-.1873289.1879162-.4416616.2936783-.707.294z" data-original="#000000" class="active-path" fill="#000000"/><path id="Shape" d="m50.506 51.506c-.2651948-.0000566-.5195073-.1054506-.707-.293l-2.121-2.121c-.3789722-.3923789-.3735524-1.0160848.0121814-1.4018186s1.0094397-.3911536 1.4018186-.0121814l2.121 2.122c.2859079.2859943.3714219.7160366.216678 1.0896546-.1547439.3736179-.5192821.6172591-.923678.6173454z" data-original="#000000" class="active-path" fill="#000000"/><path id="Shape" d="m11.615 12.615c-.2651948-.0000566-.5195073-.1054506-.707-.293l-2.121-2.122c-.27014567-.24863985-.38231463-.62532269-.2921953-.98124258.09011932-.35591989.36803283-.6338334.72395272-.72395272.35591989-.09011933.73260273.02204963.98124258.2921953l2.121 2.121c.2859079.2859943.3714219.7160366.216678 1.0896546-.1547439.3736179-.5192821.6172591-.923678.6173454z" data-original="#000000" class="active-path" fill="#000000"/><path id="Shape" d="m21.18 23h-11.54l5.77-9.07z" data-original="#000000" class="active-path" fill="#000000"/><path id="Shape" d="m28.82 13-5.82 9.14-5.82-9.14z" data-original="#000000" class="active-path" fill="#000000"/><path id="Shape" d="m35.17 23h-10.34l5.17-8.14z" data-original="#000000" class="active-path" fill="#000000"/><path id="Shape" d="m42.82 13-5.82 9.14-5.82-9.14z" data-original="#000000" class="active-path" fill="#000000"/><path id="Shape" d="m50.36 23h-11.54l5.77-9.07z" data-original="#000000" class="active-path" fill="#000000"/></g></g></g> </svg>
